<svg id="Capa_1" enable-background="new 0 0 512 512" height="512" viewBox="0 0 512 512" width="512" xmlns="http://www.w3.org/2000/svg"><g><g><g><g><g><g><g><g><g><g><g><g><g><circle cx="256" cy="256" fill="#ffea98" r="256"/></g></g></g></g></g></g></g></g></g></g></g></g><path d="m379.271 166.911-14.159 14.159-81.776-81.776-4.215 4.215-10.176-10.176-4.94 17.781-15.412 2.571 10.176 10.176-3.165 3.165-36.756-36.756-29.288 26.9-26.935-1.308-1.192 83.535-65.111 37.684s37.623 36.529 84.977 82.902l-11.55 11.55-60.917-60.917-5.693 5.693-13.745-13.745.927 26.564-3.267 3.267-25.15-2.341 13.745 13.745-5.693 5.693 84.702 84.702-10.314 10.314 107.435 107.435c1.406.023 2.811.053 4.222.053 127.62 0 233.415-93.388 252.808-215.551z" fill="#fd5"/><g><g><g><ellipse cx="171.69" cy="333.415" fill="#8e4dd5" rx="41.962" ry="38.487"/><path d="m195.995 194.33h17.657v139.086h-17.657z" fill="#8e4dd5"/><g fill="#613393"><path d="m313.601 224.255h17.657v97.223h-17.657z"/><path d="m331.258 232.4-67.632-9.631-34.739-28.439 34.739-19.863 67.632 9.631z"/></g></g><path d="m263.626 174.467-67.631-9.632v48.302l67.631 9.632z" fill="#8e4dd5"/></g><path d="m151.216 80.638v98.729c-6.859-4.48-15.243-7.123-24.305-7.123-23.175 0-41.962 17.231-41.962 38.487s18.787 38.487 41.962 38.487c9.062 0 17.446-2.643 24.305-7.123 10.683-6.977 17.657-18.42 17.657-31.364 0-.001 0-.001 0-.001v-79.276l49.974 7.117v-48.301z" fill="#ff3c7d"/><path d="m356.85 302.278v36.103 37.692c-5.127-3.348-11.393-5.324-18.167-5.324-17.322 0-31.365 12.879-31.365 28.767s14.042 28.767 31.365 28.767c6.773 0 13.04-1.976 18.167-5.324 7.985-5.215 13.198-13.768 13.198-23.443v-59.256l37.353 5.32v-36.103z" fill="#00a98f"/><path d="m289.296 113.685-8.739-4.809 2.778-9.582-9.583 2.777-4.808-8.738-4.809 8.738-9.582-2.777 2.778 9.582-8.739 4.809 8.739 4.808-2.778 9.583 9.582-2.778 4.809 8.739 4.808-8.739 9.583 2.778-2.778-9.582z" fill="#8e4dd5"/><path d="m427.753 385.281-8.739-4.809 2.778-9.582-9.582 2.777-4.809-8.738-4.809 8.738-9.582-2.777 2.778 9.582-8.739 4.809 8.739 4.808-2.778 9.583 9.582-2.778 4.809 8.739 4.809-8.739 9.582 2.778-2.778-9.583z" fill="#613393"/><path d="m412.419 246.681-8.739-4.808 2.778-9.582-9.583 2.777-4.808-8.739-4.809 8.739-9.582-2.778 2.777 9.583-8.738 4.808 8.738 4.809-2.777 9.582 9.582-2.777 4.809 8.738 4.808-8.738 9.583 2.778-2.778-9.583z" fill="#d21372"/><path d="m116.884 290.056-11.804-6.495 3.752-12.943-12.943 3.752-6.495-11.804-6.496 11.804-12.943-3.753 3.752 12.944-11.804 6.495 11.804 6.496-3.752 12.943 12.943-3.752 6.496 11.804 6.495-11.804 12.943 3.752-3.752-12.943z" fill="#00ccb2"/><path d="m289.296 282.991c-9.672 0-18.573 3.009-25.669 8.052l-5 30.435 5 30.435c7.097 5.043 15.997 8.052 25.669 8.052 23.175 0 41.962-17.231 41.962-38.487s-18.787-38.487-41.962-38.487z" fill="#613393"/><path d="m263.626 291.042c-9.908 7.04-16.292 18.05-16.292 30.435s6.385 23.395 16.292 30.435z" fill="#8e4dd5"/><circle cx="371.715" cy="174.467" fill="#8e4dd5" r="10.686"/><circle cx="151.899" cy="396.956" fill="#ff3c7d" r="10.686"/></g></g></svg>