<?xml version="1.0" encoding="iso-8859-1"?>
<!-- Generator: Adobe Illustrator 19.0.0, SVG Export Plug-In . SVG Version: 6.00 Build 0)  -->
<svg version="1.1" id="Capa_1" xmlns="http://www.w3.org/2000/svg" xmlns:xlink="http://www.w3.org/1999/xlink" x="0px" y="0px"
	 viewBox="0 0 512 512" style="enable-background:new 0 0 512 512;" xml:space="preserve">
<circle style="fill:#FFDC00;" cx="256" cy="256" r="256"/>
<path style="fill:#FFC000;" d="M512,256c0-1.301-0.03-2.595-0.049-3.891L435,175.158l-140.845,94.738L156.593,132.333l-62.521,20
	l117.583,117.583l-75.67,131l31.239,31.239l-0.726,0.61l79.003,79.003C248.985,511.909,252.482,512,256,512
	C397.385,512,512,397.385,512,256z"/>
<polygon style="fill:#008CC3;" points="435,175.158 379.873,336.331 167.097,336.331 147.55,175.158 "/>
<polygon style="fill:#0074A3;" points="435,175.158 256,175.158 256,336.331 379.873,336.331 "/>
<polygon style="fill:#175D76;" points="379.536,400.917 135.985,400.917 156.939,335.269 138.507,152.333 94.071,152.333 
	94.071,132.333 156.593,132.333 177.255,337.395 163.363,380.917 379.536,380.917 "/>
<rect x="256" y="380.92" style="fill:#00263F;" width="123.54" height="20"/>
<circle style="fill:#005C83;" cx="330.92" cy="412.65" r="29.85"/>
<circle style="fill:#0074A3;" cx="188.55" cy="412.65" r="29.85"/>
<polygon style="fill:#FFFFFF;" points="385.186,268.487 289.809,198.321 304.531,315.809 322.602,279.307 347,320.89 
	368.903,308.039 344.506,266.456 "/>
<polygon style="fill:#E0E0E0;" points="344.506,266.456 385.186,268.487 289.809,198.321 358.823,313.954 368.903,308.039 "/>
<g>
</g>
<g>
</g>
<g>
</g>
<g>
</g>
<g>
</g>
<g>
</g>
<g>
</g>
<g>
</g>
<g>
</g>
<g>
</g>
<g>
</g>
<g>
</g>
<g>
</g>
<g>
</g>
<g>
</g>
</svg>
